<svg xmlns="http://www.w3.org/2000/svg" viewBox="0 0 679 378" width="679" height="378"><defs><linearGradient id="couture" x1="0" y1="0" x2="1" y2="1"><stop offset="0%" stop-color="#C3ADE4"></stop><stop offset="55%" stop-color="#CDB07E"></stop><stop offset="100%" stop-color="#9C7E45"></stop></linearGradient></defs>
  <path d="M82.96 42.08L61.84 42.08L61.84 284L82.96 284Z" fill="#16130E"></path>
  <path d="M 80 50 C 80 26, 56 14, 36 14 C 16 14, 6 30, 6 50 C 6 70, 16 86, 36 86 C 56 86, 80 74, 80 50 C 80 26, 104 14, 124 14 C 144 14, 154 30, 154 50 C 154 70, 144 86, 124 86 C 104 86, 80 74, 80 50 Z" transform="translate(85.20,99.36) scale(2.0320)" fill="none" stroke="url(#couture)" stroke-width="10" stroke-linecap="round" stroke-linejoin="round"></path>
  <path d="M407.76 376.16L428.88 376.16L428.88 259.04L429.52 259.04C443.28 279.20 467.92 287.84 487.76 287.84C534.48 287.84 567.44 254.24 567.44 209.12C567.44 164 534.48 130.40 487.76 130.40C467.92 130.40 443.28 139.04 429.52 159.20L428.88 159.20L428.88 134.24L407.76 134.24ZM544.40 209.12C544.40 242.72 522.64 268.64 487.76 268.64C453.20 268.64 427.92 242.72 427.92 209.12C427.92 175.52 453.20 149.60 487.76 149.60C522.64 149.60 544.40 175.52 544.40 209.12Z" fill="#16130E"></path>
  <path d="M616.40 134.24L595.28 134.24L595.28 284L616.40 284ZM621.20 76.64C621.20 67.68 613.52 61.28 605.84 61.28C598.16 61.28 590.48 67.68 590.48 76.64C590.48 85.60 598.16 92 605.84 92C613.52 92 621.20 85.60 621.20 76.64Z" fill="#16130E"></path>
</svg>